<svg width="80" height="80" viewBox="0 0 80 80" fill="none" xmlns="http://www.w3.org/2000/svg">
<path d="M63.3036 6.66675H30.0336C26.3303 6.66675 23.3336 9.66342 23.3336 13.3667V32.1567L7.66026 47.6301C7.19065 48.0945 6.8696 48.688 6.73787 49.3353C6.60614 49.9825 6.66966 50.6543 6.92037 51.2654C7.17108 51.8764 7.59768 52.3992 8.14603 52.7674C8.69439 53.1356 9.33976 53.3326 10.0003 53.3334V70.0001C10.0003 70.8841 10.3515 71.732 10.9766 72.3571C11.6017 72.9822 12.4495 73.3334 13.3336 73.3334H66.6669C67.551 73.3334 68.3988 72.9822 69.024 72.3571C69.6491 71.732 70.0003 70.8841 70.0003 70.0001V13.3634C70.0003 9.66341 67.0069 6.66675 63.3036 6.66675ZM36.4069 50.3701V66.6668H16.6669V48.1068L26.6236 38.2767L36.4069 48.2868V50.3701ZM43.3336 30.0001H36.6669V23.3334H43.3336V30.0001ZM56.6669 56.6668H50.0003V50.0001H56.6669V56.6668ZM56.6669 43.3334H50.0003V36.6667H56.6669V43.3334ZM56.6669 30.0001H50.0003V23.3334H56.6669V30.0001Z" fill="#AB0582"/>
<path d="M23.333 50H29.9997V56.6667H23.333V50Z" fill="#AB0582"/>
</svg>
