<svg width="60" height="60" viewBox="0 0 60 60" fill="none" xmlns="http://www.w3.org/2000/svg">
<path d="M5.625 3.75C2.51953 3.75 0 6.26953 0 9.375V50.625C0 53.7305 2.51953 56.25 5.625 56.25H54.375C57.4805 56.25 60 53.7305 60 50.625V9.375C60 6.26953 57.4805 3.75 54.375 3.75H5.625ZM5.625 7.5H18.0469C18.4336 7.5 18.75 7.81641 18.75 8.20312V10.5469C18.75 10.9336 18.4336 11.25 18.0469 11.25H4.45312C4.06641 11.25 3.75 10.9336 3.75 10.5469V9.375C3.75 8.34375 4.59375 7.5 5.625 7.5ZM55.5469 18.75H4.45312C4.06641 18.75 3.75 18.4336 3.75 18.0469V13.8281C3.75 13.4414 4.06641 13.125 4.45312 13.125H20.625L24.1641 7.81641C24.293 7.61719 24.5156 7.5 24.75 7.5H54.375C55.4062 7.5 56.25 8.34375 56.25 9.375V18.0469C56.25 18.4336 55.9336 18.75 55.5469 18.75ZM30 49.6875C22.2422 49.6875 15.9375 43.3828 15.9375 35.625C15.9375 27.8672 22.2422 21.5625 30 21.5625C37.7578 21.5625 44.0625 27.8672 44.0625 35.625C44.0625 43.3828 37.7578 49.6875 30 49.6875ZM30 25.3125C24.3164 25.3125 19.6875 29.9414 19.6875 35.625C19.6875 41.3086 24.3164 45.9375 30 45.9375C35.6836 45.9375 40.3125 41.3086 40.3125 35.625C40.3125 29.9414 35.6836 25.3125 30 25.3125ZM24.375 37.5C23.3438 37.5 22.5 36.6562 22.5 35.625C22.5 31.4883 25.8633 28.125 30 28.125C31.0312 28.125 31.875 28.9688 31.875 30C31.875 31.0312 31.0312 31.875 30 31.875C27.9375 31.875 26.25 33.5625 26.25 35.625C26.25 36.6562 25.4062 37.5 24.375 37.5Z" fill="#AB0582"/>
</svg>
