<svg width="76" height="50" viewBox="0 0 76 50" fill="none" xmlns="http://www.w3.org/2000/svg">
<path d="M75.2282 28.1594C74.6657 21.8453 73.7391 20.6156 73.3891 20.1531C72.5844 19.0844 71.2969 18.3859 69.9344 17.6531C69.8574 17.6124 69.7908 17.5543 69.7401 17.4834C69.6893 17.4126 69.6557 17.3309 69.6419 17.2448C69.6282 17.1588 69.6346 17.0707 69.6606 16.9875C69.6867 16.9044 69.7318 16.8284 69.7922 16.7656C70.0446 16.5097 70.2385 16.2022 70.3607 15.8643C70.4828 15.5263 70.5304 15.1659 70.5 14.8078C70.4413 14.1728 70.146 13.5831 69.6728 13.1556C69.1996 12.7282 68.583 12.4942 67.9454 12.5H65.5079C65.4034 12.5006 65.299 12.5074 65.1954 12.5203C65.1242 12.4894 65.0505 12.4649 64.9751 12.4469C63.5313 9.39531 61.5547 5.21719 57.4579 3.17812C51.3813 0.156249 40.1875 0 38 0C35.8125 0 24.6188 0.15625 18.55 3.17344C14.4532 5.2125 12.4766 9.39063 11.0329 12.4422L11.0204 12.4672C10.9484 12.4773 10.8776 12.4951 10.8094 12.5203C10.7057 12.5074 10.6014 12.5006 10.4969 12.5H8.05473C7.41706 12.4942 6.80048 12.7282 6.32728 13.1556C5.85408 13.5831 5.55881 14.1728 5.50005 14.8078C5.47229 15.1651 5.522 15.5241 5.64578 15.8604C5.76956 16.1967 5.96448 16.5022 6.21723 16.7563C6.2777 16.819 6.32275 16.895 6.34884 16.9782C6.37492 17.0613 6.38132 17.1494 6.36753 17.2355C6.35374 17.3215 6.32014 17.4032 6.26938 17.4741C6.21863 17.5449 6.1521 17.603 6.07505 17.6437C4.71255 18.3813 3.4188 19.0797 2.62036 20.1437C2.27036 20.6125 1.34536 21.8359 0.781296 28.15C0.468796 31.7031 0.421921 35.3813 0.667234 37.75C1.1813 42.6719 2.14536 45.6469 2.18598 45.7703C2.33392 46.2195 2.60623 46.6175 2.97131 46.9182C3.33639 47.2188 3.77925 47.4097 4.24848 47.4688V47.5C4.24848 48.163 4.51188 48.7989 4.98072 49.2678C5.44956 49.7366 6.08544 50 6.74848 50H15.4985C16.1615 50 16.7974 49.7366 17.2663 49.2678C17.7351 48.7989 17.9985 48.163 17.9985 47.5C19.3438 47.5 20.2797 47.2594 21.2719 47.0031C22.7044 46.6171 24.1686 46.3604 25.6469 46.2359C30.4141 45.7812 35.1547 45.625 38 45.625C40.7875 45.625 45.7375 45.7812 50.5125 46.2359C51.9967 46.3607 53.4667 46.6185 54.9047 47.0062C55.8547 47.25 56.7563 47.475 58.0047 47.4984C58.0047 48.1615 58.2681 48.7974 58.737 49.2662C59.2058 49.735 59.8417 49.9984 60.5047 49.9984H69.2547C69.9178 49.9984 70.5537 49.735 71.0225 49.2662C71.4913 48.7974 71.7547 48.1615 71.7547 47.4984V47.4797C72.2251 47.4218 72.6693 47.2314 73.0356 46.9307C73.4018 46.6299 73.6751 46.2313 73.8235 45.7812C73.8641 45.6578 74.8282 42.6828 75.3422 37.7609C75.5875 35.3906 75.5438 31.7188 75.2282 28.1594ZM15.5516 14.5797C16.8016 11.9234 18.2313 8.91719 20.7766 7.65C24.4547 5.81875 32.0782 4.99375 38 4.99375C43.9219 4.99375 51.5454 5.8125 55.2235 7.65C57.7688 8.91719 59.1922 11.925 60.4485 14.5797L60.6047 14.9187C60.6961 15.1118 60.7365 15.325 60.7221 15.5381C60.7076 15.7511 60.6388 15.9569 60.5223 16.1359C60.4057 16.3148 60.2452 16.4609 60.0561 16.5602C59.8671 16.6595 59.6557 16.7087 59.4422 16.7031C54.25 16.5625 43.3125 16.1125 38 16.1125C32.6875 16.1125 21.75 16.5734 16.55 16.7141C16.3366 16.7196 16.1252 16.6704 15.9361 16.5711C15.7471 16.4718 15.5866 16.3258 15.47 16.1468C15.3534 15.9679 15.2847 15.7621 15.2702 15.549C15.2558 15.3359 15.2962 15.1227 15.3875 14.9297C15.4422 14.8141 15.5 14.6969 15.5516 14.5797ZM17.4157 27.0219C14.7279 27.3454 12.0229 27.505 9.31567 27.5C7.65942 27.5 5.95161 27.0312 5.63442 25.5562C5.41723 24.5641 5.44067 24.0063 5.55786 23.4453C5.6563 22.9688 5.81255 22.6219 6.5938 22.5C8.62505 22.1875 9.76098 22.5797 13.086 23.5594C15.2907 24.2078 16.8813 25.0719 17.7875 25.7562C18.2422 26.0938 18 26.975 17.4157 27.0219ZM52.0063 39.8344C49.9501 40.0687 45.8375 39.9828 38.0469 39.9828C30.2563 39.9828 26.1454 40.0687 24.0891 39.8344C21.9672 39.5984 19.2625 37.5922 21.1094 35.8047C22.3391 34.6266 25.2079 33.7453 29.0282 33.25C32.8485 32.7547 34.4657 32.5 38.0313 32.5C41.5969 32.5 43.05 32.6562 47.0344 33.2516C51.0188 33.8469 54.0297 34.7391 54.9532 35.8063C56.6375 37.7188 54.1266 39.5859 52.0063 39.8438V39.8344ZM70.3657 25.5547C70.0532 27.0359 68.3344 27.4984 66.6844 27.4984C63.9254 27.4991 61.1687 27.3394 58.4282 27.0203C57.95 26.975 57.7282 26.1359 58.2125 25.7547C59.1047 25.0531 60.7125 24.2063 62.9141 23.5578C66.2391 22.5781 68.1563 22.1859 69.8032 22.5125C70.2047 22.5922 70.4172 23.0234 70.4422 23.2938C70.5524 24.0464 70.5265 24.8128 70.3657 25.5562V25.5547Z" fill="#AB0582"/>
</svg>
