<svg width="70" height="70" viewBox="0 0 70 70" fill="none" xmlns="http://www.w3.org/2000/svg">
<path d="M30.1002 18.2V1.40002H13.3002C11.815 1.40002 10.3906 1.99002 9.3404 3.04023C8.29019 4.09043 7.7002 5.51481 7.7002 7.00003V51.8C7.7002 53.2852 8.29019 54.7096 9.3404 55.7598C10.3906 56.81 11.815 57.4 13.3002 57.4H46.9002C48.3854 57.4 49.8098 56.81 50.86 55.7598C51.9102 54.7096 52.5002 53.2852 52.5002 51.8V23.8H35.7002C34.215 23.8 32.7906 23.21 31.7404 22.1598C30.6902 21.1096 30.1002 19.6852 30.1002 18.2ZM16.1002 30.1C16.1002 29.5431 16.3214 29.0089 16.7153 28.6151C17.1091 28.2213 17.6432 28 18.2002 28C18.7572 28 19.2913 28.2213 19.6851 28.6151C20.0789 29.0089 20.3002 29.5431 20.3002 30.1C20.3002 30.657 20.0789 31.1911 19.6851 31.585C19.2913 31.9788 18.7572 32.2 18.2002 32.2C17.6432 32.2 17.1091 31.9788 16.7153 31.585C16.3214 31.1911 16.1002 30.657 16.1002 30.1ZM16.1002 38.5C16.1002 37.9431 16.3214 37.4089 16.7153 37.0151C17.1091 36.6213 17.6432 36.4 18.2002 36.4C18.7572 36.4 19.2913 36.6213 19.6851 37.0151C20.0789 37.4089 20.3002 37.9431 20.3002 38.5C20.3002 39.057 20.0789 39.5911 19.6851 39.985C19.2913 40.3788 18.7572 40.6 18.2002 40.6C17.6432 40.6 17.1091 40.3788 16.7153 39.985C16.3214 39.5911 16.1002 39.057 16.1002 38.5ZM16.1002 46.9C16.1002 46.3431 16.3214 45.8089 16.7153 45.4151C17.1091 45.0213 17.6432 44.8 18.2002 44.8C18.7572 44.8 19.2913 45.0213 19.6851 45.4151C20.0789 45.8089 20.3002 46.3431 20.3002 46.9C20.3002 47.457 20.0789 47.9911 19.6851 48.385C19.2913 48.7788 18.7572 49 18.2002 49C17.6432 49 17.1091 48.7788 16.7153 48.385C16.3214 47.9911 16.1002 47.457 16.1002 46.9ZM24.5002 30.1C24.5002 29.5431 24.7214 29.0089 25.1153 28.6151C25.5091 28.2213 26.0432 28 26.6002 28H42.0002C42.5572 28 43.0913 28.2213 43.4851 28.6151C43.8789 29.0089 44.1002 29.5431 44.1002 30.1C44.1002 30.657 43.8789 31.1911 43.4851 31.585C43.0913 31.9788 42.5572 32.2 42.0002 32.2H26.6002C26.0432 32.2 25.5091 31.9788 25.1153 31.585C24.7214 31.1911 24.5002 30.657 24.5002 30.1ZM24.5002 38.5C24.5002 37.9431 24.7214 37.4089 25.1153 37.0151C25.5091 36.6213 26.0432 36.4 26.6002 36.4H42.0002C42.5572 36.4 43.0913 36.6213 43.4851 37.0151C43.8789 37.4089 44.1002 37.9431 44.1002 38.5C44.1002 39.057 43.8789 39.5911 43.4851 39.985C43.0913 40.3788 42.5572 40.6 42.0002 40.6H26.6002C26.0432 40.6 25.5091 40.3788 25.1153 39.985C24.7214 39.5911 24.5002 39.057 24.5002 38.5ZM24.5002 46.9C24.5002 46.3431 24.7214 45.8089 25.1153 45.4151C25.5091 45.0213 26.0432 44.8 26.6002 44.8H42.0002C42.5572 44.8 43.0913 45.0213 43.4851 45.4151C43.8789 45.8089 44.1002 46.3431 44.1002 46.9C44.1002 47.457 43.8789 47.9911 43.4851 48.385C43.0913 48.7788 42.5572 49 42.0002 49H26.6002C26.0432 49 25.5091 48.7788 25.1153 48.385C24.7214 47.9911 24.5002 47.457 24.5002 46.9ZM34.3002 18.2V2.80002L51.1002 19.6H35.7002C35.3289 19.6 34.9728 19.4525 34.7102 19.19C34.4477 18.9274 34.3002 18.5713 34.3002 18.2Z" fill="#AB0582"/>
</svg>
