<svg width="80" height="64" viewBox="0 0 80 64" fill="none" xmlns="http://www.w3.org/2000/svg">
<path d="M54.3375 8H43.6C42.6 8 41.6375 8.375 40.9 9.05L28.6125 20.3C28.6 20.3125 28.5875 20.3375 28.575 20.35C26.5 22.3 26.5375 25.4125 28.3125 27.35C29.9 29.0875 33.2375 29.55 35.325 27.6875C35.3375 27.675 35.3625 27.675 35.375 27.6625L45.3625 18.5125C46.175 17.775 47.45 17.825 48.1875 18.6375C48.9375 19.45 48.875 20.7125 48.0625 21.4625L44.8 24.45L63 39.225C63.3625 39.525 63.6875 39.85 63.9875 40.1875V16L57.1625 9.175C56.425 8.425 55.4 8 54.3375 8ZM68 16.025V44.0125C68 46.225 69.7875 48.0125 72 48.0125H80V16.025H68ZM74 44.0125C72.9 44.0125 72 43.1125 72 42.0125C72 40.9125 72.9 40.0125 74 40.0125C75.1 40.0125 76 40.9125 76 42.0125C76 43.1125 75.1 44.0125 74 44.0125ZM0 48H8C10.2125 48 12 46.2125 12 44V16.025H0V48ZM6 40.0125C7.1 40.0125 8 40.9125 8 42.0125C8 43.1125 7.1 44.0125 6 44.0125C4.9 44.0125 4 43.1125 4 42.0125C4 40.9 4.9 40.0125 6 40.0125ZM60.4875 42.3375L41.825 27.1875L38.075 30.625C34.3625 34.0125 28.675 33.6875 25.3625 30.075C22 26.4 22.2625 20.7125 25.9125 17.3625L36.1375 8H25.6625C24.6 8 23.5875 8.425 22.8375 9.175L16 16V43.9875H18.2875L29.6 54.225C33.025 57.0125 38.0625 56.4875 40.85 53.0625L40.875 53.0375L43.1125 54.975C45.1 56.6 48.0375 56.2875 49.65 54.3L53.575 49.475L54.25 50.025C55.9625 51.4125 58.4875 51.1625 59.875 49.4375L61.0625 47.975C62.4625 46.25 62.2 43.7375 60.4875 42.3375Z" fill="#AB0582"/>
</svg>
