<svg width="19" height="18" viewBox="0 0 19 18" fill="none" xmlns="http://www.w3.org/2000/svg">
<g clip-path="url(#clip0_50_8015)">
<path fill-rule="evenodd" clip-rule="evenodd" d="M0.165039 9.09349C0.165039 13.3738 3.41479 16.9331 7.66504 17.6548V11.4367H5.41504V9.04542H7.66504V7.13198C7.66504 4.97964 9.11479 3.78437 11.1653 3.78437C11.8148 3.78437 12.5153 3.87979 13.1648 3.97521V6.17562H12.015C10.9148 6.17562 10.665 6.70151 10.665 7.37161V9.04542H13.065L12.6653 11.4367H10.665V17.6548C14.9153 16.9331 18.165 13.3745 18.165 9.09349C18.165 4.33178 14.115 0.436035 9.16504 0.436035C4.21504 0.436035 0.165039 4.33178 0.165039 9.09349Z" fill="#CDCDCD"/>
</g>
<defs>
<clipPath id="clip0_50_8015">
<rect width="18" height="17.2188" fill="white" transform="translate(0.165039 0.436035)"/>
</clipPath>
</defs>
</svg>
