<svg width="18" height="18" viewBox="0 0 18 18" fill="none" xmlns="http://www.w3.org/2000/svg">
<g clip-path="url(#clip0_130:6266)">
<path fill-rule="evenodd" clip-rule="evenodd" d="M0 8.65745C0 12.9378 3.24975 16.497 7.5 17.2188V11.0006H5.25V8.60938H7.5V6.69595C7.5 4.5436 8.94975 3.34833 11.0002 3.34833C11.6497 3.34833 12.3503 3.44375 12.9998 3.53917V5.73959H11.85C10.7498 5.73959 10.5 6.26548 10.5 6.93558V8.60938H12.9L12.5002 11.0006H10.5V17.2188C14.7502 16.497 18 12.9385 18 8.65745C18 3.89575 13.95 0 9 0C4.05 0 0 3.89575 0 8.65745Z" fill="#AB0582"/>
</g>
<defs>
<clipPath id="clip0_130:6266">
<rect width="18" height="17.2188" fill="white"/>
</clipPath>
</defs>
</svg>
