<svg width="70" height="70" viewBox="0 0 70 70" fill="none" xmlns="http://www.w3.org/2000/svg">
<path d="M39.3747 36.4613C40.4622 36.4613 41.5108 36.8665 42.3159 37.5977C43.121 38.3289 43.6248 39.3337 43.7293 40.4163L43.7497 40.8334V43.75H39.3747C37.4408 43.75 35.5861 44.5183 34.2187 45.8857C32.8512 47.2532 32.083 49.1078 32.083 51.0417V60.4363C29.6913 60.984 27.2449 61.257 24.7913 61.25C16.8522 61.25 6.31426 58.4617 5.84759 48.7959L5.83301 48.125V40.8334C5.83306 39.7458 6.23819 38.6972 6.9694 37.8922C7.7006 37.0871 8.70546 36.5832 9.78801 36.4788L10.208 36.4584L39.3747 36.4613ZM62.708 43.75C63.2068 43.75 63.6938 43.7996 64.1663 43.8959V40.8334L64.1459 40.4105C64.0408 39.3284 63.5367 38.3243 62.7317 37.5937C61.9266 36.8631 60.8785 36.4584 59.7913 36.4584H45.173L45.5026 36.9309C46.2318 38.0596 46.6663 39.3925 46.6663 40.8334V43.75H62.708ZM24.7913 5.83337C26.5149 5.83337 28.2217 6.17286 29.8141 6.83246C31.4065 7.49205 32.8533 8.45883 34.0721 9.6776C35.2909 10.8964 36.2577 12.3433 36.9173 13.9357C37.5769 15.5281 37.9163 17.2348 37.9163 18.9584C37.9163 20.682 37.5769 22.3887 36.9173 23.9811C36.2577 25.5735 35.2909 27.0204 34.0721 28.2391C32.8533 29.4579 31.4065 30.4247 29.8141 31.0843C28.2217 31.7439 26.5149 32.0834 24.7913 32.0834C21.3104 32.0834 17.972 30.7006 15.5106 28.2391C13.0491 25.7777 11.6663 22.4393 11.6663 18.9584C11.6663 15.4774 13.0491 12.139 15.5106 9.6776C17.972 7.21618 21.3104 5.83337 24.7913 5.83337ZM51.0413 11.6667C53.7488 11.6667 56.3453 12.7422 58.2597 14.6567C60.1742 16.5711 61.2497 19.1676 61.2497 21.875C61.2497 24.5825 60.1742 27.179 58.2597 29.0934C56.3453 31.0079 53.7488 32.0834 51.0413 32.0834C48.3339 32.0834 45.7374 31.0079 43.823 29.0934C41.9085 27.179 40.833 24.5825 40.833 21.875C40.833 19.1676 41.9085 16.5711 43.823 14.6567C45.7374 12.7422 48.3339 11.6667 51.0413 11.6667ZM34.9997 51.0417C34.9997 49.8814 35.4606 48.7686 36.2811 47.9481C37.1016 47.1276 38.2144 46.6667 39.3747 46.6667H62.708C63.8683 46.6667 64.9811 47.1276 65.8016 47.9481C66.6221 48.7686 67.083 49.8814 67.083 51.0417V62.7084C67.083 63.8687 66.6221 64.9815 65.8016 65.802C64.9811 66.6224 63.8683 67.0834 62.708 67.0834H39.3747C38.2144 67.0834 37.1016 66.6224 36.2811 65.802C35.4606 64.9815 34.9997 63.8687 34.9997 62.7084V51.0417ZM64.1663 52.5C63.3928 52.5 62.6509 52.1928 62.1039 51.6458C61.557 51.0988 61.2497 50.3569 61.2497 49.5834H58.333C58.333 51.1305 58.9476 52.6142 60.0415 53.7082C61.1355 54.8021 62.6192 55.4167 64.1663 55.4167V52.5ZM64.1663 58.3334C62.6192 58.3334 61.1355 58.948 60.0415 60.0419C58.9476 61.1359 58.333 62.6196 58.333 64.1667H61.2497C61.2497 63.3932 61.557 62.6513 62.1039 62.1043C62.6509 61.5573 63.3928 61.25 64.1663 61.25V58.3334ZM40.833 49.5834C40.833 50.3569 40.5257 51.0988 39.9787 51.6458C39.4318 52.1928 38.6899 52.5 37.9163 52.5V55.4167C39.4634 55.4167 40.9472 54.8021 42.0411 53.7082C43.1351 52.6142 43.7497 51.1305 43.7497 49.5834H40.833ZM43.7497 64.1667C43.7497 62.6196 43.1351 61.1359 42.0411 60.0419C40.9472 58.948 39.4634 58.3334 37.9163 58.3334V61.25C38.6899 61.25 39.4318 61.5573 39.9787 62.1043C40.5257 62.6513 40.833 63.3932 40.833 64.1667H43.7497ZM56.1455 56.875C56.1455 55.5213 55.6077 54.2231 54.6505 53.2659C53.6933 52.3086 52.395 51.7709 51.0413 51.7709C49.6876 51.7709 48.3894 52.3086 47.4321 53.2659C46.4749 54.2231 45.9372 55.5213 45.9372 56.875C45.9372 58.2288 46.4749 59.527 47.4321 60.4842C48.3894 61.4414 49.6876 61.9792 51.0413 61.9792C52.395 61.9792 53.6933 61.4414 54.6505 60.4842C55.6077 59.527 56.1455 58.2288 56.1455 56.875Z" fill="#AB0582"/>
</svg>
