<svg width="21" height="20" viewBox="0 0 21 20" fill="none" xmlns="http://www.w3.org/2000/svg">
<path d="M15.165 2.84131H5.16504C3.74837 2.84131 2.66504 3.87762 2.66504 5.2328V14.7988C2.66504 16.154 3.74837 17.1903 5.16504 17.1903H15.165C16.5817 17.1903 17.665 16.154 17.665 14.7988V5.2328C17.665 3.87762 16.5817 2.84131 15.165 2.84131ZM10.165 7.6243C11.5817 7.6243 12.665 8.66061 12.665 10.0158C12.665 11.371 11.5817 12.4073 10.165 12.4073C8.74837 12.4073 7.66504 11.371 7.66504 10.0158C7.66504 8.66061 8.74837 7.6243 10.165 7.6243ZM13.3317 6.02997C13.3317 5.47195 13.8317 5.07337 14.3317 5.07337C14.8317 5.07337 15.3317 5.55167 15.3317 6.02997C15.3317 6.50827 14.915 6.98657 14.3317 6.98657C13.7484 6.98657 13.3317 6.58798 13.3317 6.02997ZM15.165 15.5959H5.16504C4.66504 15.5959 4.33171 15.2771 4.33171 14.7988V10.0158H5.99837C5.99837 12.2479 7.83171 14.0016 10.165 14.0016C12.4984 14.0016 14.3317 12.2479 14.3317 10.0158H15.9984V14.7988C15.9984 15.2771 15.665 15.5959 15.165 15.5959Z" fill="#CDCDCD"/>
</svg>
