<svg width="20" height="20" viewBox="0 0 20 20" fill="none" xmlns="http://www.w3.org/2000/svg">
<path d="M15 2.39148H5C3.58333 2.39148 2.5 3.42779 2.5 4.78297V14.349C2.5 15.7041 3.58333 16.7404 5 16.7404H15C16.4167 16.7404 17.5 15.7041 17.5 14.349V4.78297C17.5 3.42779 16.4167 2.39148 15 2.39148ZM10 7.17447C11.4167 7.17447 12.5 8.21078 12.5 9.56596C12.5 10.9211 11.4167 11.9575 10 11.9575C8.58333 11.9575 7.5 10.9211 7.5 9.56596C7.5 8.21078 8.58333 7.17447 10 7.17447ZM13.1667 5.58014C13.1667 5.02212 13.6667 4.62354 14.1667 4.62354C14.6667 4.62354 15.1667 5.10184 15.1667 5.58014C15.1667 6.05844 14.75 6.53674 14.1667 6.53674C13.5833 6.53674 13.1667 6.13816 13.1667 5.58014ZM15 15.1461H5C4.5 15.1461 4.16667 14.8273 4.16667 14.349V9.56596H5.83333C5.83333 11.798 7.66667 13.5518 10 13.5518C12.3333 13.5518 14.1667 11.798 14.1667 9.56596H15.8333V14.349C15.8333 14.8273 15.5 15.1461 15 15.1461Z" fill="#AB0582"/>
</svg>
