<svg width="76" height="76" viewBox="0 0 76 76" fill="none" xmlns="http://www.w3.org/2000/svg">
<path d="M70.6432 31.4062L70.6234 31.2527C70.5873 31.0605 70.5222 30.875 70.4304 30.7024L60.7996 15.1999C60.7996 15.1999 59.5715 13.6799 59.2796 13.6799H18.2396L5.89724 30.1765L5.75132 30.3285L5.73156 30.3999C5.6273 30.5674 5.54167 30.7458 5.4762 30.9319L5.42604 31.0794C5.28383 31.5513 5.29073 32.0555 5.4458 32.5234L5.50356 32.6891C5.58108 32.8851 5.67684 33.0645 5.78932 33.2241L35.6284 71.0219L35.6892 71.1086C35.8428 71.3062 36.0297 71.481 36.2577 71.6406L36.431 71.7485C36.6012 71.8549 36.7791 71.94 37.0375 72.0342L37.2062 72.0905C37.498 72.165 37.7519 72.1999 37.9996 72.1999C38.2504 72.1999 38.4952 72.1665 38.825 72.0814L39.0272 72.0099C39.2248 71.94 39.4026 71.8534 39.6169 71.7211L39.7507 71.6375C39.9802 71.4749 40.1641 71.2986 40.266 71.1602L70.1431 33.3229C70.4073 32.9704 70.5797 32.5578 70.6447 32.1221L70.6675 31.926L70.6796 31.771L70.6432 31.4062ZM54.6224 30.3999L58.8753 22.7042L63.1252 30.3999H54.6224ZM52.0718 34.9599H62.1616L45.3443 56.2627L52.0718 34.9599ZM49.576 28.0926L43.4336 19.7599H54.18L49.576 28.0926ZM29.9011 34.9599H46.1028L37.9996 60.613L29.9011 34.9599ZM31.5077 30.3999L37.9996 21.59L44.4916 30.3999H31.5077ZM26.9356 27.4025L24.1205 19.7599H32.5672L26.9356 27.4025ZM30.658 56.2642L13.8392 34.9599H23.9305L30.658 56.2642ZM19.2504 22.7574L22.067 30.3999H13.6188L19.2504 22.7574Z" fill="#AB0582"/>
</svg>
