<svg width="21" height="17" viewBox="0 0 21 17" fill="none" xmlns="http://www.w3.org/2000/svg">
<g clip-path="url(#clip0_50_8018)">
<path d="M4.08649 0.427734C1.93215 0.427734 0.168945 1.87721 0.168945 3.64831V13.6423C0.168945 15.4134 1.93211 16.8624 4.08649 16.8624H16.2433C18.3977 16.8624 20.1602 15.4134 20.1602 13.6423V3.64831C20.1602 1.87724 18.3977 0.427734 16.2433 0.427734H4.08649ZM5.07181 3.13978C6.10477 3.13978 6.74103 3.69725 6.76067 4.43005C6.76067 5.14666 6.10473 5.71981 5.05183 5.71981H5.03245C4.01915 5.71981 3.36421 5.1467 3.36421 4.43005C3.36421 3.69727 4.03897 3.13978 5.07179 3.13978H5.07181ZM13.9734 6.56477C15.96 6.56477 17.4492 7.6322 17.4492 9.92607V14.2083H14.4301V10.2132C14.4301 9.20924 13.9932 8.5243 12.9006 8.5243C12.0665 8.5243 11.5694 8.98596 11.3511 9.43192C11.2714 9.59148 11.2518 9.81431 11.2518 10.0375V14.2083H8.23271C8.23271 14.2083 8.27233 7.44066 8.23271 6.73991H11.2524V7.79751C11.6536 7.28864 12.3712 6.56475 13.9734 6.56475V6.56477ZM3.54229 6.74045H6.56135V14.2084H3.54229V6.74045Z" fill="#CDCDCD"/>
</g>
<defs>
<clipPath id="clip0_50_8018">
<rect width="20" height="16.4418" fill="white" transform="translate(0.164062 0.422363)"/>
</clipPath>
</defs>
</svg>
