<svg width="20" height="17" viewBox="0 0 20 17" fill="none" xmlns="http://www.w3.org/2000/svg">
<g clip-path="url(#clip0_130:6269)">
<path d="M3.92242 12.224C1.76808 12.224 0.00488281 13.6735 0.00488281 15.4446V25.4386C0.00488281 27.2096 1.76804 28.6586 3.92242 28.6586H16.0792C18.2336 28.6586 19.9961 27.2097 19.9961 25.4386V15.4446C19.9961 13.6735 18.2336 12.224 16.0792 12.224H3.92242ZM4.90774 14.936C5.9407 14.936 6.57696 15.4935 6.5966 16.2263C6.5966 16.9429 5.94066 17.5161 4.88776 17.5161H4.86838C3.85508 17.5161 3.20014 16.943 3.20014 16.2263C3.20014 15.4935 3.8749 14.936 4.90772 14.936H4.90774ZM13.8093 18.361C15.7959 18.361 17.2851 19.4285 17.2851 21.7223V26.0046H14.2661V22.0094C14.2661 21.0055 13.8291 20.3206 12.7366 20.3206C11.9025 20.3206 11.4053 20.7822 11.187 21.2282C11.1073 21.3877 11.0877 21.6106 11.0877 21.8338V26.0046H8.06864C8.06864 26.0046 8.10826 19.2369 8.06864 18.5362H11.0883V19.5938C11.4895 19.0849 12.2072 18.361 13.8093 18.361V18.361ZM3.37822 18.5367H6.39728V26.0046H3.37822V18.5367Z" fill="#AB0582"/>
</g>
<defs>
<clipPath id="clip0_130:6269">
<rect width="20" height="16.4418" fill="white" transform="translate(0 0.21875)"/>
</clipPath>
</defs>
</svg>
