<svg width="80" height="64" viewBox="0 0 80 64" fill="none" xmlns="http://www.w3.org/2000/svg">
<path d="M28 40H32V12H28C25.7913 12 24 13.7913 24 16V36C24 38.2088 25.7913 40 28 40ZM72 36V16C72 13.7913 70.2087 12 68 12H64V40H68C70.2087 40 72 38.2088 72 36ZM78 48H16V2C16 0.895 15.105 0 14 0H2C0.895 0 0 0.895 0 2V6C0 7.105 0.895 8 2 8H8V54C8 55.105 8.895 56 10 56H20.3675C20.1438 56.6287 20 57.295 20 58C20 61.3138 22.6863 64 26 64C29.3137 64 32 61.3138 32 58C32 57.295 31.8562 56.6287 31.6325 56H56.3675C56.1437 56.6287 56 57.295 56 58C56 61.3138 58.6862 64 62 64C65.3138 64 68 61.3138 68 58C68 57.295 67.8562 56.6287 67.6325 56H78C79.105 56 80 55.105 80 54V50C80 48.895 79.105 48 78 48ZM60 12V6C60 2.68625 57.3138 0 54 0H42C38.6862 0 36 2.68625 36 6V40H60V12ZM54 12H42V6H54V12Z" fill="#AB0582"/>
</svg>
