<svg width="24" height="24" viewBox="0 0 24 24" fill="none" xmlns="http://www.w3.org/2000/svg">
<path d="M4.33333 5C3.71449 5 3.121 5.22692 2.68342 5.63085C2.24583 6.03477 2 6.58261 2 7.15385L2 16.8462C2 17.4174 2.24583 17.9652 2.68342 18.3692C3.121 18.7731 3.71449 19 4.33333 19H9V5H4.33333Z" fill="#009A49"/>
<path d="M9 5H15V19H9V5Z" fill="#EEEEEE"/>
<path d="M19.6667 5H15V19H19.6667C20.2855 19 20.879 18.7731 21.3166 18.3692C21.7542 17.9652 22 17.4174 22 16.8462V7.15385C22 6.58261 21.7542 6.03477 21.3166 5.63085C20.879 5.22692 20.2855 5 19.6667 5Z" fill="#009A49"/>
</svg>
