<svg width="86" height="86" viewBox="0 0 86 86" fill="none" xmlns="http://www.w3.org/2000/svg">
<path d="M45.3089 22.2136H49.5081C49.646 22.2139 49.7825 22.1871 49.91 22.1345C50.0375 22.082 50.1534 22.0049 50.251 21.9075C50.3486 21.8102 50.426 21.6945 50.4789 21.5672C50.5317 21.4398 50.5589 21.3033 50.5589 21.1654V16.9662C50.5589 16.6875 50.4482 16.4202 50.2511 16.2232C50.0541 16.0261 49.7868 15.9154 49.5081 15.9154H45.3089C45.171 15.9154 45.0345 15.9426 44.9071 15.9954C44.7798 16.0483 44.6641 16.1257 44.5668 16.2233C44.4694 16.321 44.3923 16.4368 44.3398 16.5643C44.2872 16.6918 44.2604 16.8284 44.2607 16.9662V21.1654C44.2607 21.7446 44.7297 22.2136 45.3089 22.2136Z" fill="#AB0582"/>
<path d="M54.1263 22.2136H58.3255C58.4633 22.2139 58.5999 22.1871 58.7274 22.1345C58.8549 22.082 58.9707 22.0049 59.0683 21.9075C59.166 21.8102 59.2434 21.6945 59.2962 21.5672C59.3491 21.4398 59.3763 21.3033 59.3763 21.1654V16.9662C59.3763 16.6875 59.2656 16.4202 59.0685 16.2232C58.8714 16.0261 58.6042 15.9154 58.3255 15.9154H54.1263C53.9884 15.9154 53.8519 15.9426 53.7245 15.9954C53.5972 16.0483 53.4815 16.1257 53.3842 16.2233C53.2868 16.321 53.2097 16.4368 53.1571 16.5643C53.1046 16.6918 53.0778 16.8284 53.0781 16.9662V21.1654C53.0781 21.7446 53.5484 22.2136 54.1263 22.2136Z" fill="#AB0582"/>
<path d="M62.9456 22.2136H67.1448C67.2827 22.2139 67.4193 22.1871 67.5467 22.1345C67.6742 22.082 67.7901 22.0049 67.8877 21.9075C67.9853 21.8102 68.0627 21.6945 68.1156 21.5672C68.1684 21.4398 68.1956 21.3033 68.1956 21.1654V16.9662C68.1956 16.6875 68.0849 16.4202 67.8878 16.2232C67.6908 16.0261 67.4235 15.9154 67.1448 15.9154H62.9456C62.8077 15.9154 62.6712 15.9426 62.5439 15.9954C62.4165 16.0483 62.3009 16.1257 62.2035 16.2233C62.1061 16.321 62.029 16.4368 61.9765 16.5643C61.924 16.6918 61.8971 16.8284 61.8975 16.9662V21.1654C61.8975 21.7446 62.3664 22.2136 62.9456 22.2136Z" fill="#AB0582"/>
<path d="M71.763 22.2136H75.9622C76.1 22.2139 76.2366 22.1871 76.3641 22.1345C76.4916 22.082 76.6074 22.0049 76.7051 21.9075C76.8027 21.8102 76.8801 21.6945 76.933 21.5672C76.9858 21.4398 77.013 21.3033 77.013 21.1654V16.9662C77.013 16.6875 76.9023 16.4202 76.7052 16.2232C76.5082 16.0261 76.2409 15.9154 75.9622 15.9154H71.763C71.6251 15.9154 71.4886 15.9426 71.3613 15.9954C71.2339 16.0483 71.1182 16.1257 71.0209 16.2233C70.9235 16.321 70.8464 16.4368 70.7939 16.5643C70.7413 16.6918 70.7145 16.8284 70.7148 16.9662V21.1654C70.7148 21.7446 71.1852 22.2136 71.763 22.2136Z" fill="#AB0582"/>
<path d="M49.5081 64.4167H45.3089C45.171 64.4167 45.0345 64.444 44.9071 64.4968C44.7798 64.5496 44.6641 64.6271 44.5668 64.7247C44.4694 64.8223 44.3923 64.9382 44.3398 65.0656C44.2872 65.1931 44.2604 65.3297 44.2607 65.4676V69.6668C44.2607 70.2459 44.7311 70.7149 45.3089 70.7149H49.5081C49.646 70.7153 49.7825 70.6884 49.91 70.6359C50.0375 70.5834 50.1533 70.5062 50.251 70.4089C50.3486 70.3115 50.426 70.1958 50.4789 70.0685C50.5317 69.9412 50.5589 69.8046 50.5589 69.6668V65.4676C50.5591 65.3295 50.532 65.1928 50.4793 65.0652C50.4265 64.9377 50.3491 64.8217 50.2515 64.7241C50.1539 64.6265 50.038 64.5491 49.9104 64.4964C49.7829 64.4436 49.6461 64.4166 49.5081 64.4167Z" fill="#AB0582"/>
<path d="M54.1263 70.7149H58.3255C58.4633 70.7153 58.5999 70.6884 58.7274 70.6359C58.8549 70.5834 58.9707 70.5062 59.0683 70.4089C59.166 70.3115 59.2434 70.1958 59.2962 70.0685C59.3491 69.9412 59.3763 69.8046 59.3763 69.6668V65.4676C59.3765 65.3295 59.3494 65.1928 59.2967 65.0652C59.2439 64.9377 59.1665 64.8217 59.0689 64.7241C58.9713 64.6265 58.8554 64.5491 58.7278 64.4964C58.6002 64.4436 58.4635 64.4166 58.3255 64.4167H54.1263C53.9884 64.4167 53.8519 64.444 53.7245 64.4968C53.5972 64.5496 53.4815 64.6271 53.3842 64.7247C53.2868 64.8223 53.2097 64.9382 53.1571 65.0656C53.1046 65.1931 53.0778 65.3297 53.0781 65.4676V69.6668C53.0781 70.2446 53.5484 70.7149 54.1263 70.7149Z" fill="#AB0582"/>
<path d="M62.9456 70.7149H67.1448C67.2827 70.7153 67.4193 70.6884 67.5467 70.6359C67.6742 70.5834 67.7901 70.5062 67.8877 70.4089C67.9853 70.3115 68.0627 70.1958 68.1156 70.0685C68.1684 69.9412 68.1956 69.8046 68.1956 69.6668V65.4676C68.1958 65.3295 68.1687 65.1928 68.116 65.0652C68.0632 64.9377 67.9858 64.8217 67.8882 64.7241C67.7906 64.6265 67.6747 64.5491 67.5471 64.4964C67.4196 64.4436 67.2828 64.4166 67.1448 64.4167H62.9456C62.8077 64.4167 62.6712 64.444 62.5439 64.4968C62.4165 64.5496 62.3009 64.6271 62.2035 64.7247C62.1061 64.8223 62.029 64.9382 61.9765 65.0656C61.924 65.1931 61.8971 65.3297 61.8975 65.4676V69.6668C61.8975 70.2446 62.3664 70.7149 62.9456 70.7149Z" fill="#AB0582"/>
<path d="M71.763 70.7149H75.9622C76.1 70.7153 76.2366 70.6884 76.3641 70.6359C76.4916 70.5834 76.6074 70.5062 76.7051 70.4089C76.8027 70.3115 76.8801 70.1958 76.9329 70.0685C76.9858 69.9412 77.013 69.8046 77.013 69.6668V65.4676C77.0132 65.3295 76.9861 65.1928 76.9334 65.0652C76.8806 64.9377 76.8032 64.8217 76.7056 64.7241C76.608 64.6265 76.4921 64.5491 76.3645 64.4964C76.2369 64.4436 76.1002 64.4166 75.9622 64.4167H71.763C71.6251 64.4167 71.4886 64.444 71.3612 64.4968C71.2339 64.5496 71.1182 64.6271 71.0209 64.7247C70.9235 64.8223 70.8464 64.9382 70.7939 65.0656C70.7413 65.1931 70.7145 65.3297 70.7148 65.4676V69.6668C70.7148 70.2446 71.1852 70.7149 71.763 70.7149Z" fill="#AB0582"/>
<path d="M54.1263 46.4642H58.3255C58.4633 46.4645 58.5999 46.4377 58.7274 46.3852C58.8549 46.3326 58.9707 46.2555 59.0683 46.1581C59.166 46.0608 59.2434 45.9451 59.2962 45.8178C59.3491 45.6904 59.3763 45.5539 59.3763 45.4161V41.2168C59.3765 41.0788 59.3494 40.9421 59.2967 40.8145C59.2439 40.6869 59.1665 40.571 59.0689 40.4734C58.9713 40.3758 58.8554 40.2984 58.7278 40.2456C58.6002 40.1929 58.4635 40.1658 58.3255 40.166H54.1263C53.9884 40.166 53.8519 40.1932 53.7245 40.2461C53.5972 40.2989 53.4815 40.3763 53.3842 40.474C53.2868 40.5716 53.2097 40.6874 53.1571 40.8149C53.1046 40.9424 53.0778 41.079 53.0781 41.2168V45.4161C53.0781 45.9952 53.5484 46.4642 54.1263 46.4642Z" fill="#AB0582"/>
<path d="M62.9456 46.4642H67.1448C67.2827 46.4645 67.4193 46.4377 67.5467 46.3852C67.6742 46.3326 67.7901 46.2555 67.8877 46.1581C67.9853 46.0608 68.0627 45.9451 68.1156 45.8178C68.1684 45.6904 68.1956 45.5539 68.1956 45.4161V41.2168C68.1958 41.0788 68.1687 40.9421 68.116 40.8145C68.0632 40.6869 67.9858 40.571 67.8882 40.4734C67.7906 40.3758 67.6747 40.2984 67.5471 40.2456C67.4196 40.1929 67.2828 40.1658 67.1448 40.166H62.9456C62.8077 40.166 62.6712 40.1932 62.5439 40.2461C62.4165 40.2989 62.3009 40.3763 62.2035 40.474C62.1061 40.5716 62.029 40.6874 61.9765 40.8149C61.924 40.9424 61.8971 41.079 61.8975 41.2168V45.4161C61.8975 45.9952 62.3664 46.4642 62.9456 46.4642Z" fill="#AB0582"/>
<path d="M45.3089 38.3815H49.5081C50.0899 38.3815 50.5589 37.9112 50.5589 37.3307V33.1328C50.5589 32.8542 50.4482 32.5869 50.2511 32.3898C50.0541 32.1927 49.7868 32.082 49.5081 32.082H45.3089C45.171 32.082 45.0345 32.1092 44.9071 32.1621C44.7798 32.2149 44.6641 32.2924 44.5668 32.39C44.4694 32.4876 44.3923 32.6034 44.3398 32.7309C44.2872 32.8584 44.2604 32.995 44.2607 33.1328V37.3307C44.2604 37.4686 44.2872 37.6052 44.3398 37.7326C44.3923 37.8601 44.4694 37.976 44.5668 38.0736C44.6641 38.1712 44.7798 38.2486 44.9071 38.3015C45.0345 38.3543 45.171 38.3815 45.3089 38.3815Z" fill="#AB0582"/>
<path d="M54.1263 38.3815H58.3255C58.9073 38.3815 59.3763 37.9112 59.3763 37.3307V33.1328C59.3763 32.8542 59.2656 32.5869 59.0685 32.3898C58.8714 32.1927 58.6042 32.082 58.3255 32.082H54.1263C53.9884 32.082 53.8519 32.1092 53.7245 32.1621C53.5972 32.2149 53.4815 32.2924 53.3842 32.39C53.2868 32.4876 53.2097 32.6034 53.1571 32.7309C53.1046 32.8584 53.0778 32.995 53.0781 33.1328V37.3307C53.0781 37.9126 53.5484 38.3815 54.1263 38.3815Z" fill="#AB0582"/>
<path d="M62.9456 38.3815H67.1448C67.7266 38.3815 68.1956 37.9112 68.1956 37.3307V33.1328C68.1956 32.8542 68.0849 32.5869 67.8878 32.3898C67.6908 32.1927 67.4235 32.082 67.1448 32.082H62.9456C62.8077 32.082 62.6712 32.1092 62.5439 32.1621C62.4165 32.2149 62.3009 32.2924 62.2035 32.39C62.1061 32.4876 62.029 32.6034 61.9765 32.7309C61.924 32.8584 61.8971 32.995 61.8975 33.1328V37.3307C61.8971 37.4686 61.924 37.6052 61.9765 37.7326C62.029 37.8601 62.1061 37.976 62.2035 38.0736C62.3009 38.1712 62.4165 38.2486 62.5439 38.3015C62.6712 38.3543 62.8077 38.3815 62.9456 38.3815Z" fill="#AB0582"/>
<path d="M71.763 38.3815H75.9622C76.544 38.3815 77.013 37.9112 77.013 37.3307V33.1328C77.013 32.8542 76.9023 32.5869 76.7052 32.3898C76.5082 32.1927 76.2409 32.082 75.9622 32.082H71.763C71.6251 32.082 71.4886 32.1092 71.3613 32.1621C71.2339 32.2149 71.1182 32.2924 71.0209 32.39C70.9235 32.4876 70.8464 32.6034 70.7939 32.7309C70.7413 32.8584 70.7145 32.995 70.7148 33.1328V37.3307C70.7148 37.9126 71.1852 38.3815 71.763 38.3815Z" fill="#AB0582"/>
<path d="M45.3089 30.2989H49.5081C50.0899 30.2989 50.5589 29.8286 50.5589 29.2481V25.0489C50.5589 24.471 50.0886 24.0007 49.5081 24.0007H45.3089C45.0309 24.0007 44.7643 24.1112 44.5677 24.3077C44.3712 24.5043 44.2607 24.7709 44.2607 25.0489V29.2481C44.2604 29.3859 44.2872 29.5225 44.3398 29.65C44.3923 29.7775 44.4694 29.8933 44.5668 29.9909C44.6641 30.0886 44.7798 30.166 44.9071 30.2188C45.0345 30.2717 45.171 30.2989 45.3089 30.2989Z" fill="#AB0582"/>
<path d="M54.1262 30.2989H58.3255C58.9073 30.2989 59.3763 29.8286 59.3763 29.2481V25.0489C59.3763 24.471 58.906 24.0007 58.3255 24.0007H54.1262C53.8483 24.0007 53.5817 24.1112 53.3851 24.3077C53.1886 24.5043 53.0781 24.7709 53.0781 25.0489V29.2481C53.0781 29.8286 53.5484 30.2989 54.1262 30.2989Z" fill="#AB0582"/>
<path d="M62.9456 30.2989H67.1448C67.7266 30.2989 68.1956 29.8286 68.1956 29.2481V25.0489C68.1956 24.471 67.7253 24.0007 67.1448 24.0007H62.9456C62.6676 24.0007 62.401 24.1112 62.2045 24.3077C62.0079 24.5043 61.8975 24.7709 61.8975 25.0489V29.2481C61.8971 29.3859 61.924 29.5225 61.9765 29.65C62.029 29.7775 62.1061 29.8933 62.2035 29.9909C62.3009 30.0886 62.4165 30.166 62.5439 30.2188C62.6712 30.2717 62.8077 30.2989 62.9456 30.2989Z" fill="#AB0582"/>
<path d="M71.763 30.2989H75.9622C76.544 30.2989 77.013 29.8286 77.013 29.2481V25.0489C77.013 24.471 76.5427 24.0007 75.9622 24.0007H71.763C71.485 24.0007 71.2184 24.1112 71.0218 24.3077C70.8253 24.5043 70.7148 24.7709 70.7148 25.0489V29.2481C70.7148 29.8286 71.1852 30.2989 71.763 30.2989Z" fill="#AB0582"/>
<path d="M68.0208 2.6875H37.9792C35.647 2.6875 33.3125 4.94617 33.3137 7.20367V28.9375L21.2037 16.8275V26.6823H2.6875V48.6938H21.2037V58.5475L33.3137 46.4363L33.3125 68.1713C33.3125 70.43 35.647 72.6875 37.9792 72.6875H68.0208C70.3553 72.6875 72.6875 70.4288 72.6875 68.1713V7.20367C72.6875 4.94617 70.3553 2.6875 68.0208 2.6875ZM65.5767 6.51533C65.8667 6.51518 66.145 6.63026 66.3502 6.83527C66.5555 7.04028 66.6708 7.31842 66.671 7.6085C66.6712 7.89858 66.5561 8.17684 66.3511 8.38207C66.1461 8.5873 65.8679 8.70268 65.5778 8.70283C65.2878 8.70299 65.0095 8.5879 64.8043 8.38289C64.599 8.17789 64.4837 7.89975 64.4835 7.60967C64.4833 7.31959 64.5984 7.04133 64.8034 6.8361C65.0084 6.63087 65.2866 6.51549 65.5767 6.51533ZM50.046 7.101H55.954C56.136 7.101 56.2807 7.34367 56.2807 7.64583C56.2807 7.94917 56.136 8.19533 55.954 8.19533H50.046C49.8663 8.19533 49.7193 7.94917 49.7193 7.64583C49.7193 7.34483 49.8652 7.101 50.046 7.101ZM57.102 68.5855C57.102 68.6932 57.0808 68.7999 57.0396 68.8994C56.9983 68.9989 56.9379 69.0893 56.8618 69.1654C56.7856 69.2416 56.6952 69.302 56.5957 69.3432C56.4962 69.3845 56.3895 69.4057 56.2818 69.4057H49.7193C49.6116 69.4057 49.505 69.3845 49.4055 69.3432C49.306 69.302 49.2155 69.2416 49.1394 69.1654C49.0632 69.0893 49.0028 68.9989 48.9616 68.8994C48.9204 68.7999 48.8992 68.6932 48.8992 68.5855V66.9452C48.8992 66.4925 49.2667 66.125 49.7193 66.125H56.2818C56.7345 66.125 57.102 66.4925 57.102 66.9452V68.5855ZM69.4068 63.9375H36.5943V43.1568L39.287 40.4642C39.3512 40.603 39.4643 40.6952 39.693 40.6952H43.3388C43.4585 40.6955 43.5771 40.6722 43.6878 40.6266C43.7985 40.581 43.8991 40.514 43.9838 40.4295C44.0686 40.3449 44.1358 40.2445 44.1817 40.1339C44.2276 40.0234 44.2512 39.9049 44.2512 39.7852V36.1393C44.2513 36.0195 44.2278 35.9008 44.182 35.79C44.1362 35.6793 44.069 35.5786 43.9843 35.4939C43.8995 35.4091 43.7989 35.3419 43.6881 35.2961C43.5774 35.2503 43.4587 35.2268 43.3388 35.227H39.693C39.6627 35.227 39.6498 35.2422 39.6207 35.2457L36.5943 32.2193V11.4375H69.4068V63.9375Z" fill="#AB0582"/>
</svg>
