<svg width="126" height="46" viewBox="0 0 126 46" fill="none" xmlns="http://www.w3.org/2000/svg">
<g clip-path="url(#clip0_50:7937)">
<path d="M106.742 13.1994L104.857 15.085L111.07 21.2981L89.2155 21.2981L89.2155 23.9568L111.07 23.9568L104.857 30.1699L106.742 32.0556L116.17 22.6275L106.742 13.1994Z" fill="#303030"/>
</g>
<rect width="32" height="32" transform="matrix(0.707107 0.707106 -0.707107 0.707106 102.971 0)" stroke="#303030"/>
<path d="M6.92383 18.0605C7.85482 18.4577 8.55469 18.985 9.02344 19.6426C9.4987 20.3001 9.73633 21.0781 9.73633 21.9766C9.73633 23.2917 9.31641 24.3529 8.47656 25.1602C7.64323 25.9609 6.53646 26.3613 5.15625 26.3613C4.02995 26.3613 3.08594 26.0749 2.32422 25.502C1.5625 24.9225 1.04818 24.1022 0.78125 23.041L2.32422 22.2793C2.53255 23.1452 2.87435 23.8027 3.34961 24.252C3.83138 24.6947 4.43359 24.916 5.15625 24.916C6.00911 24.916 6.69922 24.6719 7.22656 24.1836C7.75391 23.6888 8.01758 23.0475 8.01758 22.2598C8.01758 21.6217 7.83203 21.0684 7.46094 20.5996C7.09635 20.1243 6.54297 19.724 5.80078 19.3984L4.0625 18.6562C3.11198 18.2591 2.40234 17.748 1.93359 17.123C1.47135 16.498 1.24023 15.7493 1.24023 14.877C1.24023 13.8613 1.61784 13.0215 2.37305 12.3574C3.12826 11.6934 4.0918 11.3613 5.26367 11.3613C6.12305 11.3613 6.86523 11.5436 7.49023 11.9082C8.12174 12.2728 8.61328 12.8099 8.96484 13.5195L7.55859 14.418C7.23958 13.8646 6.88151 13.4544 6.48438 13.1875C6.08724 12.9141 5.63802 12.7773 5.13672 12.7773C4.4987 12.7773 3.97461 12.9727 3.56445 13.3633C3.16081 13.7539 2.95898 14.252 2.95898 14.8574C2.95898 15.3652 3.11523 15.8047 3.42773 16.1758C3.74023 16.5469 4.22526 16.8757 4.88281 17.1621L6.92383 18.0605ZM17.334 16.7422L20.0098 23.1582L22.4121 17.0645H24.1309L20.1562 26.5566L17.2168 19.7012L14.2773 26.5566L10.293 17.0645H11.9922L14.375 23.1582L17.0898 16.7422H17.334ZM25.4199 12.7578C25.4199 12.4518 25.5273 12.1914 25.7422 11.9766C25.9635 11.7552 26.2305 11.6445 26.543 11.6445C26.849 11.6445 27.1094 11.7552 27.3242 11.9766C27.5456 12.1979 27.6562 12.4648 27.6562 12.7773C27.6562 13.0833 27.5488 13.3438 27.334 13.5586C27.1191 13.7734 26.8555 13.8809 26.543 13.8809C26.2305 13.8809 25.9635 13.7734 25.7422 13.5586C25.5273 13.3438 25.4199 13.0768 25.4199 12.7578ZM25.7812 26V17.0645H27.3242V26H25.7812ZM32.0215 21.5566C32.0215 22.5592 32.2982 23.3633 32.8516 23.9688C33.4049 24.5742 34.1374 24.877 35.0488 24.877C35.9408 24.877 36.6406 24.6003 37.1484 24.0469C37.6628 23.4935 37.9199 22.7253 37.9199 21.7422C37.9199 20.6419 37.6628 19.7793 37.1484 19.1543C36.6406 18.5293 35.931 18.2168 35.0195 18.2168C34.0885 18.2168 33.3561 18.513 32.8223 19.1055C32.2884 19.6979 32.0215 20.515 32.0215 21.5566ZM30.5469 30.3555V17.0645H32.002V18.7441C32.347 18.0996 32.8027 17.6048 33.3691 17.2598C33.9355 16.9147 34.5671 16.7422 35.2637 16.7422C36.5527 16.7422 37.5879 17.1816 38.3691 18.0605C39.1504 18.9395 39.541 20.1048 39.541 21.5566C39.541 23.0345 39.1569 24.2096 38.3887 25.082C37.627 25.9479 36.6048 26.3809 35.3223 26.3809C34.5866 26.3809 33.9453 26.2148 33.3984 25.8828C32.8516 25.5443 32.4056 25.043 32.0605 24.3789V30.3555H30.5469ZM48.3301 20.5215C48.278 19.7337 48.0143 19.1283 47.5391 18.7051C47.0703 18.2754 46.4258 18.0605 45.6055 18.0605C44.8633 18.0605 44.2448 18.2852 43.75 18.7344C43.2552 19.1771 42.9688 19.7728 42.8906 20.5215H48.3301ZM49.9707 21.7617H42.8906V21.8984C42.8906 22.8555 43.1641 23.6302 43.7109 24.2227C44.2578 24.8086 44.9707 25.1016 45.8496 25.1016C46.4486 25.1016 46.9889 24.9421 47.4707 24.623C47.9525 24.2975 48.3789 23.8092 48.75 23.1582L49.9121 23.9395C49.4629 24.7467 48.89 25.3555 48.1934 25.7656C47.4967 26.1758 46.6895 26.3809 45.7715 26.3809C44.4108 26.3809 43.3105 25.9316 42.4707 25.0332C41.6309 24.1348 41.2109 22.9564 41.2109 21.498C41.2109 20.0983 41.6276 18.9525 42.4609 18.0605C43.2943 17.1686 44.3652 16.7227 45.6738 16.7227C46.9954 16.7227 48.0404 17.1458 48.8086 17.9922C49.5833 18.8385 49.9707 19.9941 49.9707 21.459V21.7617Z" fill="#202020"/>
<defs>
<clipPath id="clip0_50:7937">
</clipPath>
</defs>
</svg>
