<svg width="17" height="14" viewBox="0 0 17 14" fill="none" xmlns="http://www.w3.org/2000/svg">
<path d="M16.165 1.95586C15.5766 2.21723 14.9446 2.39383 14.2801 2.47365C14.9657 2.06238 15.4787 1.41509 15.7232 0.652548C15.0791 1.03612 14.374 1.30611 13.6388 1.45078C13.1444 0.921593 12.4896 0.570836 11.7759 0.452971C11.0623 0.335106 10.3298 0.456728 9.6922 0.798952C9.05459 1.14118 8.54751 1.68486 8.24971 2.34559C7.9519 3.00631 7.88003 3.74712 8.04525 4.453C6.74 4.3873 5.46311 4.0472 4.29746 3.45478C3.13181 2.86236 2.10345 2.03085 1.27911 1.01423C0.997242 1.50164 0.83517 2.06677 0.83517 2.66862C0.834856 3.21043 0.967951 3.74394 1.22265 4.22181C1.47734 4.69969 1.84577 5.10715 2.29522 5.40805C1.77397 5.39143 1.26422 5.25023 0.808393 4.99622V5.0386C0.808341 5.79851 1.07055 6.53503 1.55053 7.1232C2.03051 7.71136 2.69869 8.11494 3.44171 8.26545C2.95816 8.39664 2.45119 8.41597 1.9591 8.32196C2.16874 8.97582 2.57709 9.54759 3.12698 9.95723C3.67688 10.3669 4.34079 10.5939 5.02578 10.6065C3.86298 11.5216 2.42692 12.0179 0.94862 12.0157C0.686756 12.0158 0.425112 12.0005 0.165039 11.9698C1.66559 12.937 3.41235 13.4503 5.19631 13.4483C11.2352 13.4483 14.5366 8.43428 14.5366 4.08567C14.5366 3.94439 14.533 3.80169 14.5267 3.66041C15.1689 3.19487 15.7232 2.61839 16.1636 1.95798L16.165 1.95586Z" fill="#CDCDCD"/>
</svg>
