<svg width="147" height="20" viewBox="0 0 147 20" fill="none" xmlns="http://www.w3.org/2000/svg">
<path d="M16.165 4.95586C15.5766 5.21723 14.9446 5.39383 14.2801 5.47365C14.9657 5.06238 15.4787 4.41509 15.7232 3.65255C15.0791 4.03612 14.374 4.30611 13.6388 4.45078C13.1444 3.92159 12.4896 3.57084 11.7759 3.45297C11.0623 3.33511 10.3298 3.45673 9.6922 3.79895C9.05459 4.14118 8.54751 4.68486 8.24971 5.34559C7.9519 6.00631 7.88003 6.74712 8.04525 7.453C6.74 7.3873 5.46311 7.0472 4.29746 6.45478C3.13181 5.86236 2.10345 5.03085 1.27911 4.01423C0.997242 4.50164 0.83517 5.06677 0.83517 5.66862C0.834856 6.21043 0.967951 6.74394 1.22265 7.22181C1.47734 7.69969 1.84577 8.10715 2.29522 8.40805C1.77397 8.39143 1.26422 8.25023 0.808393 7.99622V8.0386C0.808341 8.79851 1.07055 9.53503 1.55053 10.1232C2.03051 10.7114 2.69869 11.1149 3.44171 11.2655C2.95816 11.3966 2.45119 11.416 1.9591 11.322C2.16874 11.9758 2.57709 12.5476 3.12698 12.9572C3.67688 13.3669 4.34079 13.5939 5.02578 13.6065C3.86298 14.5216 2.42692 15.0179 0.94862 15.0157C0.686756 15.0158 0.425112 15.0005 0.165039 14.9698C1.66559 15.937 3.41235 16.4503 5.19631 16.4483C11.2352 16.4483 14.5366 11.4343 14.5366 7.08567C14.5366 6.94439 14.533 6.80169 14.5267 6.66041C15.1689 6.19487 15.7232 5.61839 16.1636 4.95798L16.165 4.95586Z" fill="#CDCDCD"/>
<g clip-path="url(#clip0_50:8012)">
<path fill-rule="evenodd" clip-rule="evenodd" d="M84.165 10.0935C84.165 14.3738 87.4148 17.9331 91.665 18.6548V12.4367H89.415V10.0454H91.665V8.13198C91.665 5.97964 93.1148 4.78437 95.1653 4.78437C95.8148 4.78437 96.5153 4.87979 97.1648 4.97521V7.17562H96.015C94.9148 7.17562 94.665 7.70151 94.665 8.37161V10.0454H97.065L96.6653 12.4367H94.665V18.6548C98.9153 17.9331 102.165 14.3745 102.165 10.0935C102.165 5.33178 98.115 1.43604 93.165 1.43604C88.215 1.43604 84.165 5.33178 84.165 10.0935Z" fill="#CDCDCD"/>
</g>
<g clip-path="url(#clip1_50:8012)">
<path d="M130.086 2.42773C127.932 2.42773 126.169 3.87721 126.169 5.64831V15.6423C126.169 17.4134 127.932 18.8624 130.086 18.8624H142.243C144.398 18.8624 146.16 17.4134 146.16 15.6423V5.64831C146.16 3.87724 144.398 2.42773 142.243 2.42773H130.086ZM131.072 5.13978C132.105 5.13978 132.741 5.69725 132.761 6.43005C132.761 7.14666 132.105 7.71981 131.052 7.71981H131.032C130.019 7.71981 129.364 7.1467 129.364 6.43005C129.364 5.69727 130.039 5.13978 131.072 5.13978H131.072ZM139.973 8.56477C141.96 8.56477 143.449 9.6322 143.449 11.9261V16.2083H140.43V12.2132C140.43 11.2092 139.993 10.5243 138.901 10.5243C138.067 10.5243 137.569 10.986 137.351 11.4319C137.271 11.5915 137.252 11.8143 137.252 12.0375V16.2083H134.233C134.233 16.2083 134.272 9.44066 134.233 8.73991H137.252V9.79751C137.654 9.28864 138.371 8.56475 139.973 8.56475V8.56477ZM129.542 8.74045H132.561V16.2084H129.542V8.74045Z" fill="#CDCDCD"/>
</g>
<path d="M55.165 2.84131H45.165C43.7484 2.84131 42.665 3.87762 42.665 5.2328V14.7988C42.665 16.154 43.7484 17.1903 45.165 17.1903H55.165C56.5817 17.1903 57.665 16.154 57.665 14.7988V5.2328C57.665 3.87762 56.5817 2.84131 55.165 2.84131ZM50.165 7.6243C51.5817 7.6243 52.665 8.66061 52.665 10.0158C52.665 11.371 51.5817 12.4073 50.165 12.4073C48.7484 12.4073 47.665 11.371 47.665 10.0158C47.665 8.66061 48.7484 7.6243 50.165 7.6243ZM53.3317 6.02997C53.3317 5.47195 53.8317 5.07337 54.3317 5.07337C54.8317 5.07337 55.3317 5.55167 55.3317 6.02997C55.3317 6.50827 54.915 6.98657 54.3317 6.98657C53.7484 6.98657 53.3317 6.58798 53.3317 6.02997ZM55.165 15.5959H45.165C44.665 15.5959 44.3317 15.2771 44.3317 14.7988V10.0158H45.9984C45.9984 12.2479 47.8317 14.0016 50.165 14.0016C52.4984 14.0016 54.3317 12.2479 54.3317 10.0158H55.9984V14.7988C55.9984 15.2771 55.665 15.5959 55.165 15.5959Z" fill="#CDCDCD"/>
<defs>
<clipPath id="clip0_50:8012">
<rect width="18" height="17.2188" fill="white" transform="translate(84.165 1.43604)"/>
</clipPath>
<clipPath id="clip1_50:8012">
<rect width="20" height="16.4418" fill="white" transform="translate(126.164 2.42236)"/>
</clipPath>
</defs>
</svg>
