<svg width="55" height="55" viewBox="0 0 55 55" fill="none" xmlns="http://www.w3.org/2000/svg">
<path d="M6.03714 34.2124C4.36428 34.2124 2.97024 33.6548 1.855 32.5395C0.73976 31.4243 0.182141 30.0302 0.182141 28.3574C0.182141 26.6845 0.73976 25.3253 1.855 24.2798C2.97024 23.2343 4.36428 22.7115 6.03714 22.7115H48.5904C50.2633 22.7115 51.6573 23.2691 52.7726 24.3843C53.8878 25.4299 54.4454 26.7891 54.4454 28.4619C54.4454 30.1348 53.8878 31.5288 52.7726 32.6441C51.6573 33.6896 50.2633 34.2124 48.5904 34.2124H6.03714ZM27.157 54.6003C25.2053 54.6003 23.5673 53.973 22.2429 52.7184C20.9883 51.4637 20.361 49.8606 20.361 47.9089V7.13301C20.361 5.18135 21.0231 3.57819 22.3475 2.32355C23.6718 1.06891 25.3098 0.441586 27.2615 0.441586C29.2829 0.441586 30.886 1.06891 32.071 2.32355C33.3256 3.57819 33.9529 5.18135 33.9529 7.13301V47.9089C33.9529 49.8606 33.3256 51.4637 32.071 52.7184C30.8163 53.973 29.1783 54.6003 27.157 54.6003Z" fill="#F69216"/>
</svg>
