<svg width="55" height="55" viewBox="0 0 55 55" fill="none" xmlns="http://www.w3.org/2000/svg">
<path d="M6.40237 34.2124C4.72952 34.2124 3.33547 33.6548 2.22023 32.5395C1.10499 31.4243 0.547376 30.0302 0.547376 28.3574C0.547376 26.6845 1.10499 25.3253 2.22023 24.2798C3.33547 23.2343 4.72952 22.7115 6.40237 22.7115H48.9557C50.6285 22.7115 52.0226 23.2691 53.1378 24.3843C54.253 25.4299 54.8107 26.7891 54.8107 28.4619C54.8107 30.1348 54.253 31.5288 53.1378 32.6441C52.0226 33.6896 50.6285 34.2124 48.9557 34.2124H6.40237ZM27.5222 54.6003C25.5705 54.6003 23.9325 53.973 22.6082 52.7184C21.3535 51.4637 20.7262 49.8606 20.7262 47.9089V7.13301C20.7262 5.18135 21.3884 3.57819 22.7127 2.32355C24.0371 1.06891 25.6751 0.441586 27.6267 0.441586C29.6481 0.441586 31.2513 1.06891 32.4362 2.32355C33.6908 3.57819 34.3182 5.18135 34.3182 7.13301V47.9089C34.3182 49.8606 33.6908 51.4637 32.4362 52.7184C31.1816 53.973 29.5436 54.6003 27.5222 54.6003Z" fill="#E5281C"/>
</svg>
