<svg width="55" height="55" viewBox="0 0 55 55" fill="none" xmlns="http://www.w3.org/2000/svg">
<path d="M6.40237 34.2124C4.72952 34.2124 3.33547 33.6548 2.22023 32.5396C1.10499 31.4243 0.547376 30.0303 0.547376 28.3574C0.547376 26.6846 1.10499 25.3254 2.22023 24.2799C3.33547 23.2343 4.72952 22.7116 6.40237 22.7116H48.9557C50.6285 22.7116 52.0226 23.2692 53.1378 24.3844C54.253 25.4299 54.8107 26.7891 54.8107 28.462C54.8107 30.1349 54.253 31.5289 53.1378 32.6441C52.0226 33.6897 50.6285 34.2124 48.9557 34.2124H6.40237ZM27.5222 54.6004C25.5705 54.6004 23.9325 53.9731 22.6082 52.7184C21.3535 51.4638 20.7262 49.8606 20.7262 47.909V7.13307C20.7262 5.18141 21.3884 3.57825 22.7127 2.32361C24.0371 1.06897 25.6751 0.441647 27.6267 0.441647C29.6481 0.441647 31.2513 1.06897 32.4362 2.32361C33.6908 3.57825 34.3182 5.18141 34.3182 7.13307V47.909C34.3182 49.8606 33.6908 51.4638 32.4362 52.7184C31.1816 53.9731 29.5436 54.6004 27.5222 54.6004Z" fill="#0170BA"/>
</svg>
